<?xml version="1.0" encoding="utf-8"?>
<!-- created with bpmn-js / http://bpmn.io -->
<!DOCTYPE svg PUBLIC "-//W3C//DTD SVG 1.1//EN" "http://www.w3.org/Graphics/SVG/1.1/DTD/svg11.dtd">
<svg xmlns="http://www.w3.org/2000/svg" xmlns:xlink="http://www.w3.org/1999/xlink" width="862" height="271" viewBox="262 113 862 271" version="1.1"><defs><marker id="sequenceflow-end-white-black-czzmvp2ftpgb6m2zsy2oh4vkv" viewBox="0 0 20 20" refX="11" refY="10" markerWidth="10" markerHeight="10" orient="auto"><path d="M 1 5 L 11 10 L 1 15 Z" style="fill: black; stroke-width: 1px; stroke-linecap: round; stroke-dasharray: 10000, 1; stroke: black;"/></marker></defs><g class="djs-group"><g class="djs-element djs-shape" data-element-id="Participant_1g7xxid" transform="translate(268, 119)" style="display: block;"><g class="djs-visual"><rect x="0" y="0" width="850" height="259" rx="0" ry="0" style="stroke: black; stroke-width: 2px; fill: white; fill-opacity: 0.95;"/><polyline points="30,0 30,259 " style="fill: none; stroke: black; stroke-width: 2px;"/><text style="font-family: sans-serif; font-size: 12px; font-weight: normal; fill: black;" lineHeight="1.2" class="djs-label" transform="matrix(-1.83697e-16, -1, 1, -1.83697e-16, 0, 259)"><tspan x="109.5" y="18.6">Doctor</tspan></text></g><rect x="0" y="0" width="850" height="259" style="fill: none; stroke-opacity: 0; stroke: white; stroke-width: 15px;" class="djs-hit"/><rect x="-6" y="-6" width="862" height="271" style="fill: none;" class="djs-outline"/></g><g class="djs-children"><g class="djs-group"><g class="djs-element djs-connection" data-element-id="SequenceFlow_0nsgc55" style="display: block;"><g class="djs-visual"><path d="m  359,244L409,244 " style="fill: none; stroke-width: 2px; stroke: black; stroke-linejoin: round; marker-end: url('#sequenceflow-end-white-black-czzmvp2ftpgb6m2zsy2oh4vkv');"/></g><polyline points="359,244 409,244 " style="fill: none; stroke-opacity: 0; stroke: white; stroke-width: 15px;" class="djs-hit"/><rect x="353" y="238" width="62" height="12" style="fill: none;" class="djs-outline"/></g></g><g class="djs-group"><g class="djs-element djs-connection" data-element-id="SequenceFlow_0y7yqiu" style="display: block;"><g class="djs-visual"><path d="m  509,244L559,244 " style="fill: none; stroke-width: 2px; stroke: black; stroke-linejoin: round; marker-end: url('#sequenceflow-end-white-black-czzmvp2ftpgb6m2zsy2oh4vkv');"/></g><polyline points="509,244 559,244 " style="fill: none; stroke-opacity: 0; stroke: white; stroke-width: 15px;" class="djs-hit"/><rect x="503" y="238" width="62" height="12" style="fill: none;" class="djs-outline"/></g></g><g class="djs-group"><g class="djs-element djs-connection" data-element-id="SequenceFlow_0ro9rae" style="display: block;"><g class="djs-visual"><path d="m  584,219L584,173 L659,173 " style="fill: none; stroke-width: 2px; stroke: black; stroke-linejoin: round; marker-end: url('#sequenceflow-end-white-black-czzmvp2ftpgb6m2zsy2oh4vkv');"/></g><polyline points="584,219 584,173 659,173 " style="fill: none; stroke-opacity: 0; stroke: white; stroke-width: 15px;" class="djs-hit"/><rect x="578" y="167" width="87" height="58" style="fill: none;" class="djs-outline"/></g></g><g class="djs-group"><g class="djs-element djs-connection" data-element-id="SequenceFlow_18jetek" style="display: block;"><g class="djs-visual"><path d="m  584,269L584,315 L659,315 " style="fill: none; stroke-width: 2px; stroke: black; stroke-linejoin: round; marker-end: url('#sequenceflow-end-white-black-czzmvp2ftpgb6m2zsy2oh4vkv');"/></g><polyline points="584,269 584,315 659,315 " style="fill: none; stroke-opacity: 0; stroke: white; stroke-width: 15px;" class="djs-hit"/><rect x="578" y="263" width="87" height="58" style="fill: none;" class="djs-outline"/></g></g><g class="djs-group"><g class="djs-element djs-connection" data-element-id="SequenceFlow_057a27l" style="display: block;"><g class="djs-visual"><path d="m  759,173L835,173 L835,219 " style="fill: none; stroke-width: 2px; stroke: black; stroke-linejoin: round; marker-end: url('#sequenceflow-end-white-black-czzmvp2ftpgb6m2zsy2oh4vkv');"/></g><polyline points="759,173 835,173 835,219 " style="fill: none; stroke-opacity: 0; stroke: white; stroke-width: 15px;" class="djs-hit"/><rect x="753" y="167" width="88" height="58" style="fill: none;" class="djs-outline"/></g></g><g class="djs-group"><g class="djs-element djs-connection" data-element-id="SequenceFlow_00l91tj" style="display: block;"><g class="djs-visual"><path d="m  759,315L835,315 L835,269 " style="fill: none; stroke-width: 2px; stroke: black; stroke-linejoin: round; marker-end: url('#sequenceflow-end-white-black-czzmvp2ftpgb6m2zsy2oh4vkv');"/></g><polyline points="759,315 835,315 835,269 " style="fill: none; stroke-opacity: 0; stroke: white; stroke-width: 15px;" class="djs-hit"/><rect x="753" y="263" width="88" height="58" style="fill: none;" class="djs-outline"/></g></g><g class="djs-group"><g class="djs-element djs-connection" data-element-id="SequenceFlow_1xbwnzr" style="display: block;"><g class="djs-visual"><path d="m  860,244L911,244 " style="fill: none; stroke-width: 2px; stroke: black; stroke-linejoin: round; marker-end: url('#sequenceflow-end-white-black-czzmvp2ftpgb6m2zsy2oh4vkv');"/></g><polyline points="860,244 911,244 " style="fill: none; stroke-opacity: 0; stroke: white; stroke-width: 15px;" class="djs-hit"/><rect x="854" y="238" width="63" height="12" style="fill: none;" class="djs-outline"/></g></g><g class="djs-group"><g class="djs-element djs-connection" data-element-id="SequenceFlow_107db1b" style="display: block;"><g class="djs-visual"><path d="m  1011,244L1062,244 " style="fill: none; stroke-width: 2px; stroke: black; stroke-linejoin: round; marker-end: url('#sequenceflow-end-white-black-czzmvp2ftpgb6m2zsy2oh4vkv');"/></g><polyline points="1011,244 1062,244 " style="fill: none; stroke-opacity: 0; stroke: white; stroke-width: 15px;" class="djs-hit"/><rect x="1005" y="238" width="63" height="12" style="fill: none;" class="djs-outline"/></g></g><g class="djs-group"><g class="djs-element djs-shape" data-element-id="StartEvent_1" transform="translate(323, 226)" style="display: block;"><g class="djs-visual"><circle cx="18" cy="18" r="18" style="stroke: black; stroke-width: 2px; fill: white; fill-opacity: 0.95;"/></g><rect x="0" y="0" width="36" height="36" style="fill: none; stroke-opacity: 0; stroke: white; stroke-width: 15px;" class="djs-hit"/><rect x="-6" y="-6" width="48" height="48" style="fill: none;" class="djs-outline"/></g></g><g class="djs-group"><g class="djs-element djs-shape" data-element-id="Task_1pcfy07" transform="translate(409, 204)" style="display: block;"><g class="djs-visual"><rect x="0" y="0" width="100" height="80" rx="10" ry="10" style="stroke: black; stroke-width: 2px; fill: white; fill-opacity: 0.95;"/><text style="font-family: sans-serif; font-size: 12px; font-weight: normal; fill: black;" lineHeight="1.2" class="djs-label"><tspan x="18.5" y="29.200000000000003">Select two </tspan><tspan x="25.5" y="43.6">patients</tspan><tspan x="50" y="58"/></text></g><rect x="0" y="0" width="100" height="80" style="fill: none; stroke-opacity: 0; stroke: white; stroke-width: 15px;" class="djs-hit"/><rect x="-6" y="-6" width="112" height="92" style="fill: none;" class="djs-outline"/></g></g><g class="djs-group"><g class="djs-element djs-shape" data-element-id="Task_13jaldf" transform="translate(659, 275)" style="display: block;"><g class="djs-visual"><rect x="0" y="0" width="100" height="80" rx="10" ry="10" style="stroke: black; stroke-width: 2px; fill: white; fill-opacity: 0.95;"/><text style="font-family: sans-serif; font-size: 12px; font-weight: normal; fill: black;" lineHeight="1.2" class="djs-label"><tspan x="24.000001907348633" y="29.200000000000003">Examine </tspan><tspan x="22.5" y="43.6">patient B</tspan><tspan x="50" y="58"/></text></g><rect x="0" y="0" width="100" height="80" style="fill: none; stroke-opacity: 0; stroke: white; stroke-width: 15px;" class="djs-hit"/><rect x="-6" y="-6" width="112" height="92" style="fill: none;" class="djs-outline"/></g></g><g class="djs-group"><g class="djs-element djs-shape" data-element-id="Task_0qq7f3i" transform="translate(659, 133)" style="display: block;"><g class="djs-visual"><rect x="0" y="0" width="100" height="80" rx="10" ry="10" style="stroke: black; stroke-width: 2px; fill: white; fill-opacity: 0.95;"/><text style="font-family: sans-serif; font-size: 12px; font-weight: normal; fill: black;" lineHeight="1.2" class="djs-label"><tspan x="24.000001907348633" y="29.200000000000003">Examine </tspan><tspan x="22.5" y="43.6">patient A</tspan><tspan x="50" y="58"/></text></g><rect x="0" y="0" width="100" height="80" style="fill: none; stroke-opacity: 0; stroke: white; stroke-width: 15px;" class="djs-hit"/><rect x="-6" y="-6" width="112" height="92" style="fill: none;" class="djs-outline"/></g></g><g class="djs-group"><g class="djs-element djs-shape" data-element-id="Task_1lpp45v" transform="translate(911, 204)" style="display: block;"><g class="djs-visual"><rect x="0" y="0" width="100" height="80" rx="10" ry="10" style="stroke: black; stroke-width: 2px; fill: white; fill-opacity: 0.95;"/><text style="font-family: sans-serif; font-size: 12px; font-weight: normal; fill: black;" lineHeight="1.2" class="djs-label"><tspan x="24.5" y="29.200000000000003">Sterylize </tspan><tspan x="17" y="43.6">equipment</tspan><tspan x="50" y="58"/></text></g><rect x="0" y="0" width="100" height="80" style="fill: none; stroke-opacity: 0; stroke: white; stroke-width: 15px;" class="djs-hit"/><rect x="-6" y="-6" width="112" height="92" style="fill: none;" class="djs-outline"/></g></g><g class="djs-group"><g class="djs-element djs-shape" data-element-id="EndEvent_1loe086" transform="translate(1062, 226)" style="display: block;"><g class="djs-visual"><circle cx="18" cy="18" r="18" style="stroke: black; stroke-width: 4px; fill: white; fill-opacity: 0.95;"/></g><rect x="0" y="0" width="36" height="36" style="fill: none; stroke-opacity: 0; stroke: white; stroke-width: 15px;" class="djs-hit"/><rect x="-6" y="-6" width="48" height="48" style="fill: none;" class="djs-outline"/></g></g><g class="djs-group"><g class="djs-element djs-shape" data-element-id="ExclusiveGateway_11q2917" transform="translate(559, 219)" style="display: block;"><g class="djs-visual"><polygon points="25,0 50,25 25,50 0,25" style="stroke: black; stroke-width: 2px; fill: white; fill-opacity: 0.95;"/><path d="m 23,10 0,12.5 -12.5,0 0,5 12.5,0 0,12.5 5,0 0,-12.5 12.5,0 0,-5 -12.5,0 0,-12.5 -5,0 z" style="fill: black; stroke-width: 1px; stroke: black;"/></g><rect x="0" y="0" width="50" height="50" style="fill: none; stroke-opacity: 0; stroke: white; stroke-width: 15px;" class="djs-hit"/><rect x="-6" y="-6" width="62" height="62" style="fill: none;" class="djs-outline"/></g></g><g class="djs-group"><g class="djs-element djs-shape selected" data-element-id="ExclusiveGateway_0x300h1" transform="translate(810, 219)" style="display: block;"><g class="djs-visual"><polygon points="25,0 50,25 25,50 0,25" style="stroke: black; stroke-width: 2px; fill: white; fill-opacity: 0.95;"/><path d="m 23,10 0,12.5 -12.5,0 0,5 12.5,0 0,12.5 5,0 0,-12.5 12.5,0 0,-5 -12.5,0 0,-12.5 -5,0 z" style="fill: black; stroke-width: 1px; stroke: black;"/></g><rect x="0" y="0" width="50" height="50" style="fill: none; stroke-opacity: 0; stroke: white; stroke-width: 15px;" class="djs-hit"/><rect x="-6" y="-6" width="62" height="62" style="fill: none;" class="djs-outline"/></g></g></g></g><g style="pointer-events: none;" class="djs-drag-group" transform="translate(150, 124)"/><g style="pointer-events: none;" class="djs-drag-group" transform="translate(0, -49)"/><g style="pointer-events: none;" class="djs-drag-group" transform="translate(0, -39)"/><g style="pointer-events: none;" class="djs-drag-group" transform="translate(0, -22)"/><g style="pointer-events: none;" class="djs-drag-group" transform="translate(1, 71)"/></svg>